<svg width="22" height="27" viewBox="0 0 22 27" fill="none" xmlns="http://www.w3.org/2000/svg">
<path d="M21.2208 20.4146C20.8516 21.2753 20.3955 22.096 19.8595 22.864C19.1435 23.8866 18.5555 24.5933 18.1048 24.9866C17.4048 25.6293 16.6528 25.9599 15.8488 25.9786C15.2728 25.9786 14.5768 25.8146 13.7662 25.4813C12.9528 25.1493 12.2062 24.9866 11.5222 24.9866C10.8062 24.9866 10.0382 25.1493 9.21551 25.4813C8.39417 25.8146 7.73017 25.9893 7.22217 26.0053C6.45284 26.0386 5.68351 25.6999 4.91684 24.9866C4.42751 24.5599 3.81551 23.8266 3.08084 22.7893C2.29417 21.6839 1.64751 20.3973 1.14084 18.9346C0.598172 17.352 0.326172 15.8213 0.326172 14.3386C0.326172 12.6413 0.692839 11.176 1.42751 9.94928C1.98317 8.98591 2.77757 8.18186 3.73417 7.61462C4.67746 7.04884 5.75429 6.7442 6.85417 6.73195C7.46751 6.73195 8.27151 6.92128 9.26751 7.29462C10.2635 7.66795 10.9035 7.85728 11.1822 7.85728C11.3928 7.85728 12.1008 7.63462 13.3062 7.19328C14.4435 6.78395 15.4035 6.61462 16.1902 6.68128C18.3235 6.85328 19.9248 7.69328 20.9902 9.20795C19.0835 10.3639 18.1408 11.9813 18.1595 14.0573C18.1755 15.6746 18.7635 17.02 19.9155 18.088C20.4248 18.5753 21.019 18.9653 21.6688 19.2386C21.5275 19.648 21.3782 20.0386 21.2208 20.4146ZM16.3315 1.17328C16.3315 2.43995 15.8675 3.62395 14.9462 4.71862C13.8315 6.01995 12.4848 6.77328 11.0248 6.65462C11.0057 6.49534 10.9964 6.33504 10.9968 6.17462C10.9968 4.95728 11.5248 3.65595 12.4675 2.59062C12.9368 2.05195 13.5342 1.60262 14.2582 1.24528C14.9808 0.893283 15.6635 0.698617 16.3062 0.665283C16.3235 0.83595 16.3315 1.00528 16.3315 1.17328Z" fill="black"/>
</svg>
