<svg width="23" height="24" viewBox="0 0 23 24" fill="none" xmlns="http://www.w3.org/2000/svg">
<path d="M12.2727 11.4879L16.2153 7.54527L3.48065 0.387934C2.63665 -0.0680656 1.84598 -0.132065 1.15265 0.366601L12.2727 11.4879ZM16.8873 16.1039L20.986 13.7986C21.786 13.3506 22.2246 12.7159 22.2246 12.0119C22.2246 11.3093 21.786 10.6733 20.9873 10.2253L17.2767 8.14127L13.0993 12.3173L16.8873 16.1039ZM0.467318 1.33593C0.381984 1.5986 0.333984 1.89193 0.333984 2.21327V21.8199C0.333984 22.3279 0.445984 22.7653 0.648651 23.1133L11.4447 12.3159L0.467318 1.33593ZM12.2727 13.1426L1.53665 23.8799C1.74198 23.9586 1.96332 23.9999 2.19665 23.9999C2.61265 23.9999 3.04598 23.8773 3.48732 23.6319L15.8273 16.7026L12.2727 13.1426Z" fill="black"/>
</svg>
