<svg width="499" height="233" viewBox="0 0 499 233" fill="none" xmlns="http://www.w3.org/2000/svg">
<path d="M139.7 128L143.8 130.4L72.8 171.4L48 157V77L72.8 62.7L140 101.5L157.6 91.3L90.4 52.5L117.3 37L186.6 77V105.6L166.9 117L186.6 128.4V157L117.3 197L90.5 181.5L157.7 142.7L74.8 94.8V139.1L116.9 114.8L120.2 117.6L72.8 145L70.8 143.8V90.1L72.8 88.9L163.8 141.4V143.8L98.6 181.4L102.1 183.4L167.3 145.8V139.4L72.8 84.9L67.3 88.1V145.9L72.8 149.1L123.1 120.1L126.4 122.9L72.8 153.8L63.2 148.2V85.8L72.8 80.2L171.4 137.1V148.2L106.2 185.8L109.7 187.8L174.9 150.2V135L72.8 76.2L59.7 83.8V150.3L72.8 157.9L129.2 125.3L132.5 128.1L72.8 162.6L55.6 152.7V81.4L72.8 71.5L179 132.7V152.6L113.8 190.2L117.3 192.2L182.5 154.6V130.7L72.8 67.4L52.1 79.4V154.7L72.8 166.7L128.1 134.7L139.7 128ZM163.8 92.5L144.1 103.9L147.6 105.9L167.3 94.5V88.1L102.1 50.5L98.6 52.5L163.8 90.1V92.5ZM171.4 96.9L151.7 108.3L155.2 110.3L174.9 98.9V83.7L109.7 46.1L106.2 48.1L171.4 85.7V96.9ZM162.8 114.6L182.5 103.2V79.4L117.3 41.8L113.8 43.8L179 81.4V101.3L159.3 112.7L162.8 114.6Z" fill="#206E6A"/>
<path d="M217.2 103.199H277.5C281.4 103.199 284.6 101.899 287.3 99.1992C290 96.4992 291.3 93.1992 291.3 89.3992C291.3 85.4992 290 82.1992 287.3 79.5992C284.6 76.8992 281.3 75.5992 277.5 75.5992H217.2V47.6992H277.5C285.1 47.6992 292 49.4992 298.4 53.1992C304.8 56.8992 309.8 61.8992 313.5 68.2992C317.2 74.6992 319 81.5992 319 89.1992C319 96.7992 317.2 103.699 313.5 110.099C309.8 116.499 304.8 121.499 298.4 125.199C292 128.899 285.1 130.699 277.5 130.699H217.2V103.199ZM217.2 80.2992L244.9 82.6992V186.199H217.2V80.2992ZM222.8 158.599H277.6C281.5 158.599 284.7 157.299 287.4 154.599C290.1 151.899 291.4 148.599 291.4 144.799C291.4 140.899 290.1 137.599 287.4 134.999C284.7 132.299 281.4 130.999 277.6 130.999H217.3V103.299H277.6C285.2 103.299 292.1 105.099 298.5 108.799C304.9 112.499 309.9 117.499 313.6 123.899C317.3 130.299 319.1 137.199 319.1 144.799C319.1 152.399 317.3 159.299 313.6 165.699C309.9 172.099 304.9 177.099 298.5 180.799C292.1 184.499 285.2 186.299 277.6 186.299H222.8V158.599Z" fill="#4DCFB0"/>
<path d="M411.4 186.301H314.1L319 166.901L363.5 114.501C371.6 105.001 374.8 97.3008 374.8 88.8008C374.8 79.3008 368.1 74.7008 360.4 74.7008C352.3 74.7008 346.7 79.7008 346 88.8008H317.7C317.7 65.1008 337.7 47.8008 362.4 47.8008C388.3 47.8008 407.5 66.2008 407.5 88.6008C407.5 107.401 395.6 121.801 386.7 132.101L363.3 159.001H411.4V186.301Z" fill="#4DCFB0"/>
<path d="M451 186.301H418.1V83.2008L402.8 89.8008L411.9 55.8008L422 49.8008H451V186.301Z" fill="#4DCFB0"/>
</svg>
