<svg xmlns="http://www.w3.org/2000/svg" viewBox="0 0 322 56">
  <g fill="none" fill-rule="evenodd" transform="translate(1 1)">
    <rect width="320" height="54" fill="#FFF" stroke="#EA532A" rx="10"/>
    <text fill="#EA532A" font-family="Helvetica-Bold, Helvetica" font-size="9" font-weight="bold" transform="translate(50 11)">
      <tspan x="0" y="9">Please support us on </tspan>
    </text>
    <text fill="#EA532A" font-family="Helvetica-Bold, Helvetica" font-size="21" font-weight="bold" transform="translate(49 20)">
      <tspan x="0" y="20">Product Hunt</tspan>
    </text>
    <g fill-rule="nonzero" transform="translate(8 12)">
      <path fill="#EA532A" d="M31,15.5 C31,24.0603917 24.0603917,31 15.5,31 C6.93960833,31 0,24.0603917 0,15.5 C0,6.93960833 6.93960833,0 15.5,0 C24.0603917,0 31,6.93960833 31,15.5"/>
      <path fill="#FFF" d="M17.4329412,15.9558824 L17.4329412,15.9560115 L13.0929412,15.9560115 L13.0929412,11.3060115 L17.4329412,11.3060115 L17.4329412,11.3058824 C18.7018806,11.3058824 19.7305882,12.3468365 19.7305882,13.6308824 C19.7305882,14.9149282 18.7018806,15.9558824 17.4329412,15.9558824 M17.4329412,8.20588235 L17.4329412,8.20588235 L10.0294118,8.20588235 L10.0294118,23.7058823 L13.0929412,23.7058823 L13.0929412,19.0560115 L17.4329412,19.0560115 L17.4329412,19.0558824 C20.3938424,19.0558824 22.7941176,16.6270324 22.7941176,13.6308824 C22.7941176,10.6347324 20.3938424,8.20588235 17.4329412,8.20588235"/>
    </g>
    <path fill="#F64C1E" d="M213.12777,13 L298.87223,13 C300.655267,13 301.30184,13.1856512 301.953691,13.5342654 C302.605543,13.8828796 303.11712,14.3944567 303.465735,15.0463086 C303.814349,15.6981604 304,16.3447329 304,18.1277704 L304,35.8722296 C304,37.6552671 303.814349,38.3018396 303.465735,38.9536914 C303.11712,39.6055433 302.605543,40.1171204 301.953691,40.4657346 C301.30184,40.8143488 300.655267,41 298.87223,41 L213.12777,41 C211.344733,41 210.69816,40.8143488 210.046309,40.4657346 C209.394457,40.1171204 208.88288,39.6055433 208.534265,38.9536914 C208.185651,38.3018396 208,37.6552671 208,35.8722296 L208,18.1277704 C208,16.3447329 208.185651,15.6981604 208.534265,15.0463086 C208.88288,14.3944567 209.394457,13.8828796 210.046309,13.5342654 C210.69816,13.1856512 211.344733,13 213.12777,13 Z"/>
    <text fill="#FFF" font-family="Helvetica-Bold, Helvetica" font-size="10" font-weight="bold">
      <tspan x="220" y="30">Click to upvote</tspan>
    </text>
  </g>
</svg>
